<?xml version="1.0" encoding="utf-8"?> <!-- Generator: Adobe Illustrator 21.1.0, SVG Export Plug-In . SVG Version: 6.00 Build 0)  --> <svg version="1.0" xmlns="http://www.w3.org/2000/svg" xmlns:xlink="http://www.w3.org/1999/xlink" x="0px" y="0px" 	 viewBox="0 0 2386.6 750" style="enable-background:new 0 0 2386.6 750;" xml:space="preserve"> <style type="text/css"> 	.st0{display:none;} 	.st1{display:inline;} 	.st2{fill:#D8DDDF;} 	.st3{fill:#24255E;} 	.st4{fill:#2A2B62;} 	.st5{fill:#FFFFFF;} </style> <g id="Capa_4" class="st0"> 			<image style="display:inline;overflow:visible;" width="354" height="113" xlink:href="../../../Pictures/Captura.PNG"  transform="matrix(7.4171 0 0 7.4171 -60.0634 -43.213)"> 	</image> </g> <g id="logo_x5F_sirius_xA0_Imagen_1_" class="st0"> 	<g> 		<g class="st1"> 			<path class="st2" d="M376.7,725.1c-193.7,0-351.6-157.3-351-352.4C26.4,180.3,182.9,22.1,378.8,23c191.9,0.9,349.9,157.1,349,353 				C726.9,568.2,570.8,725,376.7,725.1z"/> 			<path class="st3" d="M496.4,121.7c-8.7-2.2-17.3-4.4-26-6.5c-8.1-2-16.4-3-24.6-4.3c-16.2-2.5-32.6-2.1-48.9-2 				c-11,0.1-21.9,1.9-32.9,3.1c-8.3,0.9-16.7,1.6-25,3.2c-24.9,4.8-48.6,12.3-70.3,25.9c-18,11.3-33.7,24.7-45.2,42.7 				c-7.8,12.2-13.3,25.4-14.6,39.8c-0.8,9.3-1,18.7,1.2,28c4.1,17.1,11.9,32.1,23.6,45.3c10.3,11.7,21.9,21.7,35.3,29.5 				c16.2,9.5,32.9,18.2,49.9,26.4c29.9,14.4,61.7,23.2,93.5,31.8c20.5,5.6,41.2,10.6,62.2,14c21.3,3.4,42.5,7.1,64,8.9 				c21.3,1.8,42.5,3.6,63.9,4.3c16.6,0.5,33.2,1.1,49.9,1.1c1.6,0,2.9,0,2.4,2.2c-4.8,20.9-8.7,42.1-16.6,62.2 				c-24.5,61.3-65.5,108.5-122.8,141.5c-27.5,15.8-57.1,25.6-88.2,31.2c-20.8,3.8-41.9,5.6-63,4.8c-28.4-1-55.9-7.2-82.7-16.5 				c-29.7-10.4-56.3-26.1-80.4-46.2c-0.9-0.7-1.7-1.4-2.7-2.2c1.5-0.5,2.4,0.5,3.4,1c13.1,6.3,26.4,11.9,40.1,16.9 				c20.2,7.5,40.7,13.8,61.8,18.4c6.7,1.5,13.3,2.8,20.1,4c17.8,3.1,35.8,3.1,53.7,2.5c10.2-0.3,20.3-1.9,30.4-3.7 				c12.6-2.3,25-5.7,36.9-10.1c17.5-6.4,33.7-15.3,48.4-27.2c10.5-8.5,19.8-18.1,27.1-29.5c12.3-19.1,18.6-39.9,14.9-62.8 				c-2.1-13.5-8.2-25.6-16-36.7c-12.1-17.2-28-30.2-45.4-41.6c-27.6-18-57.8-30.2-88.5-41.4c-30.9-11.2-62.6-19-94.7-25.4 				c-21.3-4.3-42.8-7.6-64.4-10.2c-19.9-2.4-39.8-4.3-59.8-5.7c-21.3-1.5-42.7-2.2-64.1-2.1c-2.9,0-3.7-0.6-3.5-3.7 				c1.7-21.9,8.2-42.4,17-62.3c14.6-32.8,34-62.5,58.4-88.9c15.3-16.5,33-30.2,51.9-42.4c15-9.6,30.4-18.1,46.8-25 				c12.2-5.1,24.6-9.5,37.5-12.6c7.1-1.7,14.1-3.6,21.2-4.8c17.7-2.9,35.4-3.9,53.4-2.9c11.6,0.6,23.2,1.4,34.7,3.1 				c26.1,3.8,51.2,10.9,75.2,22.1c1.2,0.5,2.2,1.3,3.3,2C497.7,121.6,497.2,122,496.4,121.7z"/> 			<path class="st4" d="M496.4,121.7c0.5-0.3,1.1-0.5,1.6-0.8c0.4,0,1.1,0.2,0.9,0.5C498.3,122.5,497.3,122.6,496.4,121.7z"/> 		</g> 	</g> 	<g> 		<path class="st1" d="M865.2,367.6c0.5,22.7,23.4,38.4,68.8,47h0.7c26.1,4.8,46.3,12,60.6,21.8c17.5,11.4,26.2,26.4,26.2,45.1 			c0,18.7-8.8,34.4-26.4,47.1c-17.6,12.7-38.2,19.1-61.8,19.1c-30-0.2-59.2-11.7-87.8-34.4c-3.6-3.2-4-6.7-1-10.6 			c1.4-1.6,3.1-2.5,5.1-2.7c2-0.2,3.9,0.3,5.4,1.7c25.6,20.7,51.7,30.9,78.3,30.6c20.9,0,38.3-5.2,52.4-15.7 			c13.6-9.8,20.4-21.6,20.4-35.4c0-25.4-24.8-42.8-74.5-52.1h-0.7c-53.8-10-80.7-30.5-80.7-61.6c0-17.7,8.1-32.5,24.3-44.3 			c16.2-11.8,35.6-17.7,58-17.7c9.8,0,19.6,1.6,29.4,4.9c9.9,3.3,17.5,6.5,23,9.5c5.4,3.1,12.5,7.4,21.1,13.1 			c4.1,2.7,4.8,6.2,2,10.6c-2.5,4.1-5.9,4.8-10.2,2c-8.2-5.2-14.8-9.3-19.9-12.3c-5.1-2.9-11.9-5.8-20.4-8.7 			c-8.5-2.8-16.9-4.3-25-4.3c-19.1,0-35.3,4.8-48.7,14.3C871.4,344.2,865.2,355.1,865.2,367.6z"/> 		<path class="st1" d="M1169.1,539.2V317.2c0-2.3,0.8-4.2,2.4-5.8c1.6-1.6,3.5-2.4,5.8-2.4c2.3,0,4.3,0.8,6,2.4 			c1.7,1.6,2.6,3.5,2.6,5.8v221.9c0,2.3-0.9,4.2-2.6,5.8c-1.7,1.6-3.7,2.4-6,2.4c-2.3,0-4.2-0.8-5.8-2.4 			C1169.9,543.4,1169.1,541.4,1169.1,539.2z"/> 		<path class="st1" d="M1495.2,543.6c-14.5,0-21.8-16.7-21.8-50c0-14.5-6.5-26.6-19.4-36.1c-9.3-6.6-18.8-10.7-28.6-12.3 			c-0.2-0.2-0.5-0.3-0.7-0.3h-57.9v94.3c0,2.3-0.9,4.2-2.6,5.8c-1.7,1.6-3.7,2.4-6,2.4c-2.3,0-4.2-0.8-5.8-2.4 			c-1.6-1.6-2.4-3.5-2.4-5.8V317.2c0-2,0.7-3.9,2.2-5.4c1.5-1.6,3.2-2.5,5.3-2.7h68.1c18.8,0,34.8,6.6,48,19.9 			c13.2,13.3,19.7,29.3,19.7,48.2c0,13.4-3.6,25.6-10.7,36.8c-7.1,11.1-16.6,19.4-28.4,24.8l3.4,1.7c9.1,5.2,16.7,12.3,22.8,21.1 			c6.1,8.9,9.2,20.9,9.2,36.1c0,15.2,2.2,25,6.5,29.3c4.8-0.5,7.8,1.4,9.2,5.4c1.1,5.4-0.7,9.1-5.4,10.9h-0.7l-3.4,0.3H1495.2z 			 M1462.6,412.9c9.8-10,14.6-22,14.6-36.1c0-14.1-5.1-26.1-15.1-36.1c-10.1-10-22.2-15-36.3-15h-58.9v102.8h60.3 			C1441,428.1,1452.8,422.9,1462.6,412.9z"/> 		<path class="st1" d="M1654.5,539.2V317.2c0-2.3,0.8-4.2,2.4-5.8c1.6-1.6,3.5-2.4,5.8-2.4c2.3,0,4.3,0.8,6,2.4 			c1.7,1.6,2.6,3.5,2.6,5.8v221.9c0,2.3-0.9,4.2-2.6,5.8c-1.7,1.6-3.7,2.4-6,2.4c-2.3,0-4.2-0.8-5.8-2.4 			C1655.3,543.4,1654.5,541.4,1654.5,539.2z"/> 		<path class="st1" d="M1840.7,451V317.2c0-2.3,0.8-4.2,2.4-5.8c1.6-1.6,3.5-2.4,5.8-2.4c2.3,0,4.3,0.8,6,2.4 			c1.7,1.6,2.6,3.5,2.6,5.8V451c0,22,7.8,40.7,23.3,56.2c15.5,15.4,34.2,23.3,56,23.5c22.2-0.2,41.1-8.1,56.7-23.5 			c15.5-15.4,23.3-34.2,23.3-56.2V317.2c0-2.3,0.8-4.2,2.4-5.8c1.6-1.6,3.5-2.4,5.8-2.4c2.3,0,4.3,0.8,6,2.4 			c1.7,1.6,2.6,3.5,2.6,5.8V451c0,26.6-9.4,49.2-28.3,68.1c-18.8,18.8-41.5,28.3-68.1,28.3s-49.2-9.4-68.1-28.3 			C1850.2,500.3,1840.7,477.6,1840.7,451z"/> 		<path class="st1" d="M2211.8,367.6c0.5,22.7,23.4,38.4,68.8,47h0.7c26.1,4.8,46.3,12,60.6,21.8c17.5,11.4,26.2,26.4,26.2,45.1 			c0,18.7-8.8,34.4-26.4,47.1c-17.6,12.7-38.2,19.1-61.8,19.1c-30-0.2-59.2-11.7-87.8-34.4c-3.6-3.2-4-6.7-1-10.6 			c1.4-1.6,3.1-2.5,5.1-2.7c2-0.2,3.9,0.3,5.4,1.7c25.6,20.7,51.7,30.9,78.3,30.6c20.9,0,38.3-5.2,52.4-15.7 			c13.6-9.8,20.4-21.6,20.4-35.4c0-25.4-24.8-42.8-74.5-52.1h-0.7c-53.8-10-80.7-30.5-80.7-61.6c0-17.7,8.1-32.5,24.3-44.3 			c16.2-11.8,35.6-17.7,58-17.7c9.8,0,19.6,1.6,29.4,4.9c9.9,3.3,17.5,6.5,23,9.5c5.4,3.1,12.5,7.4,21.1,13.1 			c4.1,2.7,4.8,6.2,2,10.6c-2.5,4.1-5.9,4.8-10.2,2c-8.2-5.2-14.8-9.3-19.9-12.3c-5.1-2.9-11.9-5.8-20.4-8.7 			c-8.5-2.8-16.9-4.3-25-4.3c-19.1,0-35.3,4.8-48.7,14.3C2218,344.2,2211.8,355.1,2211.8,367.6z"/> 	</g> 	<g class="st1"> 		<path d="M913.2,238.5c0,0.8-0.2,1.5-0.5,2.1v0.1c-0.3,0.9-0.9,1.6-1.8,2.3c-6.3,4.9-13.5,7.4-21.5,7.4c-9.6,0-17.9-3.3-24.7-9.9 			c-6.8-6.6-10.2-14.6-10.2-24.1c0-9.5,3.4-17.5,10.2-24.2c6.8-6.6,15-10,24.7-10c8.1,0,15.3,2.5,21.6,7.4c1.2,0.9,1.9,2.1,2.1,3.6 			c0.2,1.5-0.2,2.9-1,4c-0.9,1.2-2.1,1.8-3.6,2c-1.5,0.2-2.9-0.2-4.1-1.1c-4.4-3.4-9.7-5.1-15.7-5.1c-6.1,0-11.5,2.3-16.2,6.8 			c-4.7,4.5-7.1,10-7.1,16.5c0,6.4,2.4,11.9,7.1,16.5c4.8,4.5,10.4,6.8,17,6.8c4.5,0,8.8-1.2,13-3.6v-13h-13.5 			c-1.5,0-2.7-0.5-3.8-1.6c-1.1-1.1-1.6-2.3-1.6-3.8c0-1.5,0.5-2.7,1.6-3.7c1-1,2.3-1.5,3.8-1.5h18.8c1.5,0,2.8,0.5,3.9,1.5 			c1.1,1,1.6,2.3,1.6,3.8V238.5z"/> 		<path d="M978.5,220c4.3,3.3,6.4,7.8,6.4,13.7c-0.1,2.1,0.1,3.9,0.4,5.6c1.6,0.5,2.7,1.6,3.3,3.3c0.6,1.7,0.3,3.2-0.8,4.7 			c-1.1,1.5-2.6,2.2-4.6,2.2h-0.1c-2.8,0-5.1-1.4-6.7-4.3c-1.3-2.8-2-6.6-2-11.3c-0.1-2.9-1.5-5.2-4-6.8c-1.6-1.1-3.4-1.8-5.3-2.3 			H954v20.5c0,1.5-0.5,2.7-1.6,3.7c-1,1-2.3,1.5-3.7,1.5c-1.5,0-2.7-0.5-3.7-1.5c-1-1-1.5-2.2-1.5-3.7v-55.8c0-1.4,0.5-2.7,1.5-3.7 			c1-1,2.2-1.5,3.7-1.5h16.9c5.6,0,10.4,2,14.3,6c3.9,4,5.9,8.9,5.9,14.8C985.9,210.9,983.4,215.9,978.5,220z M965.6,214.1 			c2.7,0,5-0.9,6.9-2.8c1.9-1.9,2.8-4.2,2.8-6.9c0-2.7-0.9-5-2.8-6.9c-1.9-1.9-4.2-2.9-6.9-2.9H954v19.5H965.6z"/> 		<path d="M1069,223c0,7.5-2.7,13.9-8,19.3c-5.3,5.4-11.8,8-19.3,8s-14-2.7-19.3-8c-5.3-5.3-8-11.8-8-19.3v-33.7 			c0-1.4,0.5-2.7,1.5-3.7c1-1,2.2-1.5,3.7-1.5c1.4,0,2.7,0.5,3.7,1.5c1,1,1.6,2.2,1.6,3.7V223c0,4.6,1.6,8.6,4.9,11.9 			c3.3,3.3,7.2,5,11.9,5c4.7,0,8.6-1.6,11.9-4.9c3.3-3.3,4.9-7.2,4.9-11.9v-33.7c0-1.4,0.5-2.7,1.6-3.7c1-1,2.3-1.5,3.7-1.5 			c1.4,0,2.7,0.5,3.7,1.5c1,1,1.5,2.2,1.5,3.7V223z"/> 		<path d="M1138,190.1c4,4,6,8.7,6,14.3c0,5.6-2,10.3-6,14.3c-4,3.9-8.8,5.9-14.4,5.9H1112v20.5c0,1.5-0.5,2.7-1.6,3.7 			c-1,1-2.3,1.5-3.7,1.5s-2.7-0.5-3.7-1.5c-1-1-1.5-2.2-1.5-3.7v-55.8c0-1.4,0.5-2.7,1.5-3.7c1-1,2.2-1.5,3.7-1.5h16.9 			C1129.2,184.2,1134,186.2,1138,190.1z M1112,194.7v19.5h11.6c2.7,0,5-0.9,6.9-2.8c1.9-1.9,2.9-4.2,2.9-6.8c-0.1-2.8-1-5.1-2.9-7 			c-1.9-1.9-4.2-2.8-6.9-2.8H1112z"/> 		<path d="M1173.4,240.3c-6.3-6.7-9.4-14.7-9.4-24c0-9.3,3.1-17.3,9.4-24c6.3-6.7,13.9-10,22.9-10c9,0,16.7,3.4,22.9,10.2 			c6.3,6.8,9.4,14.8,9.4,24c0,9.2-3.2,17.1-9.6,23.8c-2.8,3.2-6.2,5.6-10.2,7.4c-4,1.8-8.1,2.7-12.4,2.7 			C1187.4,250.4,1179.7,247,1173.4,240.3z M1174.8,216.3c0,6.4,2.1,11.8,6.3,16.4c4.2,4.6,9.3,6.9,15.3,6.9c6,0,11-2.3,15.2-7 			s6.3-10.1,6.3-16.3s-2.1-11.7-6.2-16.3s-9.3-7-15.3-7c-6,0-11.1,2.3-15.3,6.9C1176.9,204.5,1174.8,210,1174.8,216.3z"/> 		<path d="M1296.3,245.2v-55.8c0-1.4,0.5-2.7,1.5-3.7c1-1,2.2-1.5,3.7-1.5h11.2c9.1,0,16.9,3.2,23.4,9.7c6.4,6.5,9.6,14.3,9.6,23.4 			c0,9.1-3.2,16.9-9.6,23.4c-6.4,6.5-14.2,9.7-23.4,9.7h-11.2c-1.5,0-2.7-0.5-3.7-1.5C1296.8,247.8,1296.3,246.6,1296.3,245.2z 			 M1306.8,194.7v45.2h5.9c6.2-0.1,11.6-2.3,15.9-6.7c4.4-4.4,6.6-9.7,6.6-15.9c0-6.2-2.2-11.6-6.6-16c-4.4-4.4-9.7-6.6-15.9-6.6 			H1306.8z"/> 		<path d="M1379.8,250.4c-1.5,0-2.7-0.5-3.7-1.5c-1-1-1.5-2.2-1.5-3.7v-55.8c0-1.4,0.5-2.7,1.5-3.7c1-1,2.2-1.5,3.7-1.5h30.9 			c1.4,0,2.6,0.5,3.6,1.5c1,1,1.6,2.2,1.6,3.7c0,1.5-0.5,2.7-1.6,3.7c-1,1-2.3,1.6-3.6,1.6h-25.6V212h22c1.4,0,2.6,0.5,3.6,1.6 			s1.6,2.3,1.6,3.7c0,1.4-0.5,2.6-1.5,3.7c-1,1-2.2,1.6-3.7,1.6h-22v17.4h25.6c1.4,0,2.6,0.5,3.6,1.6c1,1,1.6,2.3,1.6,3.7 			s-0.5,2.6-1.6,3.7c-1,1-2.3,1.6-3.6,1.6h-30.6H1379.8L1379.8,250.4z"/> 		<path d="M1480.3,189.4c0-1.4,0.5-2.7,1.5-3.7c1-1,2.2-1.5,3.7-1.5c1.4,0,2.7,0.5,3.7,1.5c1,1,1.6,2.2,1.6,3.7v55.8 			c0,1.5-0.5,2.7-1.6,3.7c-1,1-2.3,1.5-3.7,1.5c-1.5,0-2.7-0.5-3.7-1.5c-1-1-1.5-2.2-1.5-3.7V189.4z"/> 		<path d="M1529.2,205.9v39.2c0,1.4-0.5,2.6-1.5,3.6c-1,1-2.2,1.6-3.6,1.6c-1.4,0-2.6-0.5-3.6-1.5c-1-1-1.5-2.2-1.5-3.7v-55 			c-0.1-1.8,0.5-3.2,1.8-4.2c1.4-0.9,2.7-1.3,4.1-1.1c1.4,0.2,2.5,0.9,3.3,2l30.5,42.3v-39c0-1.4,0.5-2.6,1.5-3.6 			c1-1,2.2-1.5,3.6-1.5s2.6,0.5,3.6,1.5c1,1,1.6,2.2,1.6,3.6v54.9c0,1.5-0.5,2.7-1.6,3.7c-1,1-2.3,1.5-3.7,1.5 			c-1.5,0-2.7-0.6-3.8-1.9c-0.3-0.3-0.4-0.4-0.5-0.6L1529.2,205.9z"/> 		<path d="M1624.5,250c-0.2,0-0.5-0.2-0.9-0.6h-0.1c-0.1-0.1-0.3-0.2-0.7-0.5c-0.1-0.1-0.2-0.3-0.3-0.4c-0.1-0.2-0.2-0.3-0.3-0.3 			c-0.1-0.1-0.1-0.2-0.2-0.4c-0.1-0.2-0.2-0.4-0.3-0.5l-23.2-55.2c-0.6-1.3-0.6-2.6,0-3.9c0.5-1.4,1.5-2.3,2.9-2.8 			c1.3-0.6,2.6-0.6,3.9,0c1.3,0.5,2.3,1.5,2.8,2.8l18.4,43.8l18.4-43.8c0.6-1.3,1.5-2.3,2.9-2.8c1.4-0.5,2.7-0.5,3.9,0 			c1.3,0.5,2.3,1.4,2.8,2.8c0.5,1.4,0.6,2.7,0,3.9l-23.4,55.2l-0.4,0.8c0,0.1,0,0.1-0.1,0.2l-1.2,1.2c-0.1,0.1-0.3,0.3-0.6,0.4 			c-0.3,0.1-0.7,0.3-1.3,0.5h-0.2c-0.3,0.1-0.6,0.1-1,0.1s-0.7,0-0.9-0.1h-0.2c-0.3-0.1-0.5-0.2-0.8-0.2L1624.5,250L1624.5,250z"/> 		<path d="M1688.4,250.4c-1.5,0-2.7-0.5-3.7-1.5c-1-1-1.5-2.2-1.5-3.7v-55.8c0-1.4,0.5-2.7,1.5-3.7c1-1,2.2-1.5,3.7-1.5h30.9 			c1.4,0,2.6,0.5,3.6,1.5c1,1,1.6,2.2,1.6,3.7c0,1.5-0.5,2.7-1.6,3.7c-1,1-2.3,1.6-3.6,1.6h-25.6V212h22c1.4,0,2.6,0.5,3.6,1.6 			s1.6,2.3,1.6,3.7c0,1.4-0.5,2.6-1.5,3.7c-1,1-2.2,1.6-3.7,1.6h-22v17.4h25.6c1.4,0,2.6,0.5,3.6,1.6c1,1,1.6,2.3,1.6,3.7 			s-0.5,2.6-1.6,3.7c-1,1-2.3,1.6-3.6,1.6h-30.6H1688.4L1688.4,250.4z"/> 		<path d="M1788.4,230.2c0-4.8-5.5-8.2-16.6-10.3h-0.2c-4.9-0.9-9.2-2.3-12.8-4c-3.6-1.7-6.2-3.9-7.9-6.6c-1.7-2.7-2.5-5.4-2.5-8.3 			c0-5.5,2.4-10,7.2-13.5c4.8-3.5,10.4-5.3,16.7-5.3c2.8,0,5.6,0.5,8.5,1.4c2.9,0.9,5.1,1.8,6.5,2.6c1.4,0.8,3.3,2,5.6,3.5 			c1.1,0.8,1.7,1.8,2,3.1c0.3,1.3,0.1,2.5-0.7,3.6c-0.7,1.1-1.7,1.8-3.1,2.1c-1.3,0.3-2.6,0-3.7-0.7c-3-2-5.6-3.5-7.9-4.5 			c-2.3-1-4.7-1.5-7.3-1.5c-4.2,0-7.6,1-10.2,2.9c-2.6,2-4,4-4,6.2c0,1.1,0.3,2,0.8,2.7c1.8,2.9,6.5,5.1,14.3,6.5h0.2 			c5.3,1.1,9.6,2.4,13,4c7.8,3.8,11.7,9.1,11.7,15.9c0,5.9-2.6,10.7-7.8,14.4c-5.2,3.8-11.1,5.6-17.9,5.6 			c-8.3-0.1-16.3-3.2-24.2-9.5c-1-0.8-1.6-1.9-1.7-3.3c-0.2-1.4,0.2-2.6,1-3.6c0.8-1,1.9-1.6,3.3-1.7c1.4-0.2,2.6,0.2,3.6,1.1 			c6.1,4.9,12.1,7.3,18.1,7.3c4.7,0,8.6-1.1,11.5-3.3C1786.9,235.1,1788.4,232.7,1788.4,230.2z"/> 		<path d="M1867.1,185.7c1,1,1.5,2.2,1.5,3.7c0,1.5-0.5,2.7-1.6,3.7c-1,1-2.3,1.6-3.6,1.6h-15v50.5c0,1.5-0.5,2.7-1.5,3.7 			c-1,1-2.2,1.5-3.7,1.5c-1.5,0-2.7-0.5-3.7-1.5c-1-1-1.5-2.2-1.5-3.7v-50.5h-14.9c-1.5,0-2.7-0.5-3.7-1.6c-1-1-1.5-2.3-1.5-3.7 			c0-1.4,0.5-2.7,1.5-3.7c1-1,2.2-1.5,3.7-1.5h40.4C1864.9,184.2,1866.1,184.7,1867.1,185.7z"/> 		<path d="M1895.2,189.4c0-1.4,0.5-2.7,1.5-3.7c1-1,2.2-1.5,3.7-1.5c1.4,0,2.7,0.5,3.7,1.5c1,1,1.6,2.2,1.6,3.7v55.8 			c0,1.5-0.5,2.7-1.6,3.7c-1,1-2.3,1.5-3.7,1.5c-1.5,0-2.7-0.5-3.7-1.5c-1-1-1.5-2.2-1.5-3.7V189.4z"/> 		<path d="M1989.4,238.5c0,0.8-0.2,1.5-0.5,2.1v0.1c-0.3,0.9-0.9,1.6-1.8,2.3c-6.3,4.9-13.5,7.4-21.5,7.4c-9.6,0-17.9-3.3-24.7-9.9 			c-6.8-6.6-10.2-14.6-10.2-24.1c0-9.5,3.4-17.5,10.2-24.2c6.8-6.6,15-10,24.7-10c8.1,0,15.3,2.5,21.6,7.4c1.2,0.9,1.9,2.1,2.1,3.6 			c0.2,1.5-0.2,2.9-1,4c-0.9,1.2-2.1,1.8-3.6,2c-1.5,0.2-2.9-0.2-4.1-1.1c-4.4-3.4-9.7-5.1-15.7-5.1c-6.1,0-11.5,2.3-16.2,6.8 			c-4.7,4.5-7.1,10-7.1,16.5c0,6.4,2.4,11.9,7.1,16.5c4.8,4.5,10.4,6.8,17,6.8c4.5,0,8.8-1.2,13-3.6v-13h-13.5 			c-1.5,0-2.7-0.5-3.8-1.6c-1.1-1.1-1.6-2.3-1.6-3.8c0-1.5,0.5-2.7,1.6-3.7c1-1,2.3-1.5,3.8-1.5h18.8c1.5,0,2.8,0.5,3.9,1.5 			c1.1,1,1.6,2.3,1.6,3.8V238.5z"/> 		<path d="M2059.4,247.1l-4.6-12.3h-23l-4.6,12.3c-0.9,2.2-2.4,3.3-4.6,3.3s-3.7-0.8-4.7-2.3c-0.9-1.5-1.1-3.1-0.6-4.8l20.9-55.7 			c0.4-1,1.1-1.8,2-2.5c0.9-0.6,1.9-0.9,3-0.9c2.4-0.1,4.1,1,5,3.3l20.9,55.7c0.6,1.6,0.4,3.2-0.6,4.8c-0.9,1.5-2.5,2.3-4.7,2.3 			S2060.2,249.3,2059.4,247.1z M2035.5,224.4h15.3l-7.7-20.3L2035.5,224.4z"/> 		<path d="M2107.1,199.9c-4.6,4.7-6.9,10.3-6.9,16.6c0,6.4,2.3,11.8,7,16.3c4.7,4.5,10.1,6.8,16.3,6.8c6.2,0,11.4-1.7,15.8-5.2 			c1.1-0.8,2.4-1.1,3.9-0.9c1.5,0.2,2.7,0.9,3.7,2c0.9,1.2,1.2,2.5,1,4c-0.2,1.5-0.9,2.7-2,3.5c-6.3,4.9-13.6,7.4-21.8,7.4 			c-9.5,0-17.6-3.3-24.4-10c-6.8-6.7-10.2-14.7-10.3-24.1c0.1-9.3,3.5-17.3,10.3-24c6.8-6.6,14.9-10,24.4-10.1 			c8.3,0,15.5,2.5,21.8,7.4c1.1,0.9,1.8,2.1,2,3.6c0.2,1.5-0.2,2.8-1.1,4c-0.9,1.2-2.1,1.9-3.6,2.1c-1.5,0.2-2.8-0.2-3.9-1 			c-4.2-3.5-9.4-5.2-15.6-5.2C2117.5,193.1,2112,195.3,2107.1,199.9z"/> 		<path d="M2176.2,189.4c0-1.4,0.5-2.7,1.5-3.7c1-1,2.2-1.5,3.7-1.5c1.4,0,2.7,0.5,3.7,1.5c1,1,1.6,2.2,1.6,3.7v55.8 			c0,1.5-0.5,2.7-1.6,3.7c-1,1-2.3,1.5-3.7,1.5c-1.5,0-2.7-0.5-3.7-1.5c-1-1-1.5-2.2-1.5-3.7V189.4z"/> 		<path d="M2221.2,240.3c-6.3-6.7-9.4-14.7-9.4-24c0-9.3,3.1-17.3,9.4-24c6.3-6.7,13.9-10,22.9-10c9,0,16.7,3.4,22.9,10.2 			c6.3,6.8,9.4,14.8,9.4,24c0,9.2-3.2,17.1-9.6,23.8c-2.8,3.2-6.2,5.6-10.2,7.4c-4,1.8-8.1,2.7-12.4,2.7 			C2235.2,250.4,2227.5,247,2221.2,240.3z M2222.6,216.3c0,6.4,2.1,11.8,6.3,16.4c4.2,4.6,9.3,6.9,15.3,6.9c6,0,11-2.3,15.2-7 			s6.3-10.1,6.3-16.3s-2.1-11.7-6.2-16.3s-9.3-7-15.3-7c-6,0-11.1,2.3-15.3,6.9C2224.7,204.5,2222.6,210,2222.6,216.3z M2256,173.1 			c-1.8,1.7-3.9,2.6-6.1,2.6c-2.3,0-3.4-0.7-3.4-2c0-0.6,0.3-1.3,0.8-2.1l5.4-8.3c1.1-1.8,2.6-2.7,4.3-2.7c1.7,0,3.3,0.4,4.8,1.2 			c1.5,0.8,2.2,1.6,2.2,2.6c0,0.9-0.5,1.8-1.6,2.8L2256,173.1z"/> 		<path d="M2315.8,205.9v39.2c0,1.4-0.5,2.6-1.5,3.6c-1,1-2.2,1.6-3.6,1.6c-1.4,0-2.6-0.5-3.6-1.5c-1-1-1.5-2.2-1.5-3.7v-55 			c-0.1-1.8,0.5-3.2,1.8-4.2c1.4-0.9,2.7-1.3,4.1-1.1c1.4,0.2,2.5,0.9,3.3,2l30.5,42.3v-39c0-1.4,0.5-2.6,1.5-3.6 			c1-1,2.2-1.5,3.6-1.5s2.6,0.5,3.6,1.5c1,1,1.6,2.2,1.6,3.6v54.9c0,1.5-0.5,2.7-1.6,3.7c-1,1-2.3,1.5-3.7,1.5 			c-1.5,0-2.7-0.6-3.8-1.9c-0.3-0.3-0.4-0.4-0.5-0.6L2315.8,205.9z"/> 	</g> </g> <g id="Capa_2" class="st0"> 	<g class="st1"> 		<g> 			<path class="st5" d="M374.6,746.2C169.8,746.2,2.7,579.9,3.4,373.6C4.1,170.1,169.6,2.8,376.8,3.8c202.9,1,370,166.2,369.1,373.3 				C744.9,580.3,579.8,746.1,374.6,746.2z"/> 			<path d="M501.1,108.1c-9.2-2.3-18.3-4.6-27.5-6.9c-8.6-2.1-17.3-3.2-26-4.6c-17.2-2.6-34.4-2.2-51.7-2.1 				c-11.7,0.1-23.2,2-34.8,3.3c-8.8,0.9-17.7,1.7-26.4,3.4c-26.3,5.1-51.4,13.1-74.4,27.4c-19,11.9-35.7,26.1-47.8,45.2 				c-8.2,12.9-14.1,26.9-15.4,42.1c-0.9,9.8-1.1,19.8,1.3,29.7c4.3,18.1,12.6,33.9,24.9,47.9c10.9,12.4,23.2,22.9,37.3,31.2 				c17.2,10.1,34.8,19.3,52.8,27.9c31.6,15.2,65.2,24.6,98.9,33.7c21.7,5.9,43.6,11.3,65.8,14.8c22.5,3.6,44.9,7.5,67.7,9.4 				c22.5,1.9,45,3.8,67.6,4.5c17.6,0.5,35.1,1.2,52.7,1.1c1.7,0,3,0,2.5,2.3c-5.1,22.1-9.2,44.6-17.6,65.7 				C625,549,581.7,598.9,521.1,633.8c-29.1,16.7-60.4,27.1-93.3,33c-22,4-44.3,5.9-66.6,5.1c-30.1-1.1-59.1-7.6-87.4-17.4 				c-31.4-11-59.6-27.6-85.1-48.9c-0.9-0.8-1.8-1.5-2.8-2.3c1.6-0.5,2.5,0.5,3.6,1.1c13.8,6.7,28,12.6,42.4,17.9 				c21.4,7.9,43.1,14.6,65.3,19.5c7,1.6,14.1,3,21.2,4.2c18.9,3.3,37.9,3.2,56.8,2.7c10.8-0.3,21.5-2,32.2-3.9 				c13.4-2.4,26.4-6,39.1-10.7c18.5-6.8,35.7-16.2,51.1-28.7c11.1-9,20.9-19.2,28.7-31.2c13.1-20.2,19.6-42.2,15.8-66.4 				c-2.3-14.3-8.7-27-16.9-38.8c-12.8-18.2-29.6-32-48-44c-29.1-19-61.1-32-93.6-43.8c-32.6-11.8-66.2-20.1-100.1-26.9 				c-22.5-4.5-45.3-8.1-68.1-10.8c-21-2.5-42.1-4.6-63.2-6c-22.6-1.6-45.2-2.3-67.8-2.2c-3.1,0-3.9-0.6-3.7-3.9 				c1.8-23.1,8.7-44.9,18-65.9c15.4-34.7,36-66.1,61.8-94c16.2-17.5,34.8-32,54.9-44.9c15.8-10.2,32.2-19.2,49.5-26.4 				c12.9-5.4,26-10.1,39.7-13.4c7.5-1.8,14.9-3.8,22.4-5.1c18.7-3.1,37.5-4.1,56.4-3c12.3,0.7,24.5,1.5,36.7,3.3 				c27.6,4.1,54.2,11.6,79.5,23.4c1.2,0.6,2.3,1.4,3.5,2.1C502.5,108,502,108.4,501.1,108.1z"/> 			<path d="M501.1,108.1c0.6-0.3,1.1-0.6,1.7-0.8c0.5,0,1.2,0.2,1,0.6C503.1,108.9,502.1,109,501.1,108.1z"/> 		</g> 	</g> </g> <g id="Capa_3" class="st0"> 	<g class="st1"> 		<g> 			<path d="M374.7,747C169.9,747,2.8,580.7,3.5,374.3C4.2,170.9,169.7,3.5,376.9,4.5c202.9,1,370,166.2,369.1,373.3 				C745,581.1,579.9,746.9,374.7,747z"/> 			<path class="st5" d="M501.3,108.9c-9.2-2.3-18.3-4.6-27.5-6.9c-8.6-2.1-17.3-3.2-26-4.6c-17.2-2.6-34.4-2.2-51.7-2.1 				c-11.7,0.1-23.2,2-34.8,3.3c-8.8,0.9-17.7,1.7-26.4,3.4c-26.3,5.1-51.4,13.1-74.4,27.4c-19,11.9-35.7,26.1-47.8,45.2 				c-8.2,12.9-14.1,26.9-15.4,42.1c-0.9,9.8-1.1,19.8,1.3,29.7c4.3,18.1,12.6,33.9,24.9,47.9c10.9,12.4,23.2,22.9,37.3,31.2 				c17.2,10.1,34.8,19.3,52.8,27.9c31.6,15.2,65.2,24.6,98.9,33.7c21.7,5.9,43.6,11.3,65.8,14.8c22.5,3.6,44.9,7.5,67.7,9.4 				c22.5,1.9,45,3.8,67.6,4.5c17.6,0.5,35.1,1.2,52.7,1.1c1.7,0,3,0,2.5,2.3c-5.1,22.1-9.2,44.6-17.6,65.7 				c-25.9,64.9-69.3,114.7-129.9,149.6c-29.1,16.7-60.4,27.1-93.3,33c-22,4-44.3,5.9-66.6,5.1c-30.1-1.1-59.1-7.6-87.4-17.4 				c-31.4-11-59.6-27.6-85.1-48.9c-0.9-0.8-1.8-1.5-2.8-2.3c1.6-0.5,2.5,0.5,3.6,1.1c13.8,6.7,28,12.6,42.4,17.9 				c21.4,7.9,43.1,14.6,65.3,19.5c7,1.6,14.1,3,21.2,4.2c18.9,3.3,37.9,3.2,56.8,2.7c10.8-0.3,21.5-2,32.2-3.9 				c13.4-2.4,26.4-6,39.1-10.7c18.5-6.8,35.7-16.2,51.1-28.7c11.1-9,20.9-19.2,28.7-31.2c13.1-20.2,19.6-42.2,15.8-66.4 				c-2.3-14.3-8.7-27-16.9-38.8c-12.8-18.2-29.6-32-48-44c-29.1-19-61.1-32-93.6-43.8c-32.6-11.8-66.2-20.1-100.1-26.9 				c-22.5-4.5-45.3-8.1-68.1-10.8c-21-2.5-42.1-4.6-63.2-6c-22.6-1.6-45.2-2.3-67.8-2.2c-3.1,0-3.9-0.6-3.7-3.9 				c1.8-23.1,8.7-44.9,18-65.9c15.4-34.7,36-66.1,61.8-94c16.2-17.5,34.8-32,54.9-44.9c15.8-10.2,32.2-19.2,49.5-26.4 				c12.9-5.4,26-10.1,39.7-13.4c7.5-1.8,14.9-3.8,22.4-5.1c18.7-3.1,37.5-4.1,56.4-3c12.3,0.7,24.5,1.5,36.7,3.3 				c27.6,4.1,54.2,11.6,79.5,23.4c1.2,0.6,2.3,1.4,3.5,2.1C502.6,108.8,502.1,109.2,501.3,108.9z"/> 			<path class="st5" d="M501.3,108.9c0.6-0.3,1.1-0.6,1.7-0.8c0.5,0,1.2,0.2,1,0.6C503.2,109.7,502.2,109.8,501.3,108.9z"/> 		</g> 	</g> </g> <g id="Capa_5"> 	<g> 		<g> 			<path class="st5" d="M376.9,4.5C169.7,3.5,4.2,170.9,3.5,374.3C2.8,580.7,169.9,747,374.7,747C579.9,746.9,745,581.1,746,377.8 				C747,170.7,579.8,5.5,376.9,4.5z M651,484.9c-25.9,64.9-69.3,114.8-129.9,149.6c-29.1,16.7-60.4,27.1-93.3,33 				c-22.1,4-44.3,5.9-66.6,5.1c-30-1.1-59.1-7.6-87.4-17.5c-31.4-11-59.6-27.6-85.1-48.9c-0.9-0.8-1.8-1.5-2.8-2.3 				c1.6-0.5,2.5,0.6,3.6,1.1c13.8,6.7,28,12.6,42.4,17.9c21.4,7.9,43.1,14.6,65.3,19.5c7,1.6,14.1,3,21.2,4.2 				c18.9,3.3,37.9,3.2,56.8,2.7c10.8-0.3,21.5-2,32.2-3.9c13.4-2.4,26.4-6.1,39.1-10.7c18.5-6.8,35.7-16.2,51.1-28.7 				c11.2-9,20.9-19.2,28.7-31.2c13-20.2,19.6-42.2,15.8-66.4c-2.3-14.3-8.7-27-16.9-38.8c-12.8-18.2-29.6-32-48-44 				c-29.1-19-61.1-32-93.6-43.8c-32.6-11.8-66.2-20.1-100.1-26.9c-22.5-4.5-45.3-8.1-68.1-10.8c-21-2.5-42.1-4.6-63.2-6 				c-22.6-1.6-45.2-2.3-67.8-2.2c-3.1,0-3.9-0.6-3.7-3.9c1.8-23.1,8.7-44.9,18-65.9c15.4-34.7,36-66.1,61.8-94 				c16.2-17.5,34.9-32,54.9-44.9c15.8-10.2,32.2-19.2,49.5-26.4c12.9-5.4,26-10.1,39.7-13.4c7.5-1.8,14.9-3.8,22.4-5 				c18.7-3.1,37.5-4.1,56.5-3c12.3,0.7,24.5,1.5,36.7,3.3c27.6,4.1,54.2,11.6,79.5,23.4c1.2,0.6,2.3,1.4,3.5,2.1 				c0.5,0,1.2,0.2,1,0.6c-0.7,1.1-1.7,1.2-2.6,0.3c-9.2-2.3-18.3-4.6-27.5-6.9c-8.6-2.1-17.3-3.2-26-4.6 				c-17.2-2.6-34.4-2.2-51.7-2.1c-11.7,0.1-23.2,2-34.8,3.3c-8.8,0.9-17.7,1.7-26.4,3.4c-26.3,5.1-51.4,13.1-74.4,27.4 				c-19,11.9-35.7,26.1-47.8,45.2c-8.2,12.9-14.1,26.9-15.4,42.1c-0.9,9.8-1.1,19.8,1.3,29.7c4.3,18.1,12.6,33.9,24.9,47.9 				c10.9,12.4,23.2,22.9,37.3,31.2c17.2,10.1,34.8,19.3,52.8,27.9c31.6,15.2,65.2,24.6,98.9,33.7c21.7,5.9,43.6,11.3,65.8,14.8 				c22.5,3.6,44.9,7.5,67.7,9.4c22.5,1.9,45,3.8,67.5,4.5c17.6,0.5,35.2,1.2,52.7,1.1c1.7,0,3,0,2.5,2.3 				C663.5,441.3,659.5,463.7,651,484.9z"/> 			<path class="st5" d="M503.9,108.6c-0.7,1.1-1.7,1.2-2.6,0.3c0.6-0.3,1.1-0.6,1.7-0.8C503.4,108,504.1,108.2,503.9,108.6z"/> 			<path d="M502.9,108c-0.3,0.7-0.8,1.2-1.7,0.8C501.8,108.6,502.4,108.3,502.9,108z"/> 			<path d="M503.9,108.6c-0.7,1.1-1.7,1.2-2.6,0.3c0.6-0.3,1.1-0.6,1.7-0.8C503.4,108,504.1,108.2,503.9,108.6z"/> 		</g> 	</g> 	<g> 		<path class="st5" d="M865.2,367.6c0.5,22.7,23.4,38.4,68.8,47h0.7c26.1,4.8,46.3,12,60.6,21.8c17.5,11.4,26.2,26.4,26.2,45.1 			c0,18.7-8.8,34.4-26.4,47.1c-17.6,12.7-38.2,19.1-61.8,19.1c-30-0.2-59.2-11.7-87.8-34.4c-3.6-3.2-4-6.7-1-10.6 			c1.4-1.6,3.1-2.5,5.1-2.7c2-0.2,3.9,0.3,5.4,1.7c25.6,20.7,51.7,30.9,78.3,30.6c20.9,0,38.3-5.2,52.4-15.7 			c13.6-9.8,20.4-21.6,20.4-35.4c0-25.4-24.8-42.8-74.5-52.1h-0.7c-53.8-10-80.7-30.5-80.7-61.6c0-17.7,8.1-32.5,24.3-44.3 			c16.2-11.8,35.6-17.7,58-17.7c9.8,0,19.6,1.6,29.4,4.9c9.9,3.3,17.5,6.5,23,9.5c5.4,3.1,12.5,7.4,21.1,13.1 			c4.1,2.7,4.8,6.2,2,10.6c-2.5,4.1-5.9,4.8-10.2,2c-8.2-5.2-14.8-9.3-19.9-12.3c-5.1-2.9-11.9-5.8-20.4-8.7 			c-8.5-2.8-16.9-4.3-25-4.3c-19.1,0-35.3,4.8-48.7,14.3C871.4,344.2,865.2,355.1,865.2,367.6z"/> 		<path class="st5" d="M1169.1,539.2V317.2c0-2.3,0.8-4.2,2.4-5.8c1.6-1.6,3.5-2.4,5.8-2.4c2.3,0,4.3,0.8,6,2.4 			c1.7,1.6,2.6,3.5,2.6,5.8v221.9c0,2.3-0.9,4.2-2.6,5.8c-1.7,1.6-3.7,2.4-6,2.4c-2.3,0-4.2-0.8-5.8-2.4 			C1169.9,543.4,1169.1,541.4,1169.1,539.2z"/> 		<path class="st5" d="M1495.2,543.6c-14.5,0-21.8-16.7-21.8-50c0-14.5-6.5-26.6-19.4-36.1c-9.3-6.6-18.8-10.7-28.6-12.3 			c-0.2-0.2-0.5-0.3-0.7-0.3h-57.9v94.3c0,2.3-0.9,4.2-2.6,5.8c-1.7,1.6-3.7,2.4-6,2.4c-2.3,0-4.2-0.8-5.8-2.4 			c-1.6-1.6-2.4-3.5-2.4-5.8V317.2c0-2,0.7-3.9,2.2-5.4c1.5-1.6,3.2-2.5,5.3-2.7h68.1c18.8,0,34.8,6.6,48,19.9 			c13.2,13.3,19.7,29.3,19.7,48.2c0,13.4-3.6,25.6-10.7,36.8c-7.1,11.1-16.6,19.4-28.4,24.8l3.4,1.7c9.1,5.2,16.7,12.3,22.8,21.1 			c6.1,8.9,9.2,20.9,9.2,36.1c0,15.2,2.2,25,6.5,29.3c4.8-0.5,7.8,1.4,9.2,5.4c1.1,5.4-0.7,9.1-5.4,10.9h-0.7l-3.4,0.3H1495.2z 			 M1462.6,412.9c9.8-10,14.6-22,14.6-36.1c0-14.1-5.1-26.1-15.1-36.1c-10.1-10-22.2-15-36.3-15h-58.9v102.8h60.3 			C1441,428.1,1452.8,422.9,1462.6,412.9z"/> 		<path class="st5" d="M1654.5,539.2V317.2c0-2.3,0.8-4.2,2.4-5.8c1.6-1.6,3.5-2.4,5.8-2.4c2.3,0,4.3,0.8,6,2.4 			c1.7,1.6,2.6,3.5,2.6,5.8v221.9c0,2.3-0.9,4.2-2.6,5.8c-1.7,1.6-3.7,2.4-6,2.4c-2.3,0-4.2-0.8-5.8-2.4 			C1655.3,543.4,1654.5,541.4,1654.5,539.2z"/> 		<path class="st5" d="M1840.7,451V317.2c0-2.3,0.8-4.2,2.4-5.8c1.6-1.6,3.5-2.4,5.8-2.4c2.3,0,4.3,0.8,6,2.4 			c1.7,1.6,2.6,3.5,2.6,5.8V451c0,22,7.8,40.7,23.3,56.2c15.5,15.4,34.2,23.3,56,23.5c22.2-0.2,41.1-8.1,56.7-23.5 			c15.5-15.4,23.3-34.2,23.3-56.2V317.2c0-2.3,0.8-4.2,2.4-5.8c1.6-1.6,3.5-2.4,5.8-2.4c2.3,0,4.3,0.8,6,2.4 			c1.7,1.6,2.6,3.5,2.6,5.8V451c0,26.6-9.4,49.2-28.3,68.1c-18.8,18.8-41.5,28.3-68.1,28.3s-49.2-9.4-68.1-28.3 			C1850.2,500.3,1840.7,477.6,1840.7,451z"/> 		<path class="st5" d="M2211.8,367.6c0.5,22.7,23.4,38.4,68.8,47h0.7c26.1,4.8,46.3,12,60.6,21.8c17.5,11.4,26.2,26.4,26.2,45.1 			c0,18.7-8.8,34.4-26.4,47.1c-17.6,12.7-38.2,19.1-61.8,19.1c-30-0.2-59.2-11.7-87.8-34.4c-3.6-3.2-4-6.7-1-10.6 			c1.4-1.6,3.1-2.5,5.1-2.7c2-0.2,3.9,0.3,5.4,1.7c25.6,20.7,51.7,30.9,78.3,30.6c20.9,0,38.3-5.2,52.4-15.7 			c13.6-9.8,20.4-21.6,20.4-35.4c0-25.4-24.8-42.8-74.5-52.1h-0.7c-53.8-10-80.7-30.5-80.7-61.6c0-17.7,8.1-32.5,24.3-44.3 			c16.2-11.8,35.6-17.7,58-17.7c9.8,0,19.6,1.6,29.4,4.9c9.9,3.3,17.5,6.5,23,9.5c5.4,3.1,12.5,7.4,21.1,13.1 			c4.1,2.7,4.8,6.2,2,10.6c-2.5,4.1-5.9,4.8-10.2,2c-8.2-5.2-14.8-9.3-19.9-12.3c-5.1-2.9-11.9-5.8-20.4-8.7 			c-8.5-2.8-16.9-4.3-25-4.3c-19.1,0-35.3,4.8-48.7,14.3C2218,344.2,2211.8,355.1,2211.8,367.6z"/> 	</g> 	<g> 		<path class="st5" d="M913.2,238.5c0,0.8-0.2,1.5-0.5,2.1v0.1c-0.3,0.9-0.9,1.6-1.8,2.3c-6.3,4.9-13.5,7.4-21.5,7.4 			c-9.6,0-17.9-3.3-24.7-9.9c-6.8-6.6-10.2-14.6-10.2-24.1c0-9.5,3.4-17.5,10.2-24.2c6.8-6.6,15-10,24.7-10c8.1,0,15.3,2.5,21.6,7.4 			c1.2,0.9,1.9,2.1,2.1,3.6c0.2,1.5-0.2,2.9-1,4c-0.9,1.2-2.1,1.8-3.6,2c-1.5,0.2-2.9-0.2-4.1-1.1c-4.4-3.4-9.7-5.1-15.7-5.1 			c-6.1,0-11.5,2.3-16.2,6.8c-4.7,4.5-7.1,10-7.1,16.5c0,6.4,2.4,11.9,7.1,16.5c4.8,4.5,10.4,6.8,17,6.8c4.5,0,8.8-1.2,13-3.6v-13 			h-13.5c-1.5,0-2.7-0.5-3.8-1.6c-1.1-1.1-1.6-2.3-1.6-3.8c0-1.5,0.5-2.7,1.6-3.7c1-1,2.3-1.5,3.8-1.5h18.8c1.5,0,2.8,0.5,3.9,1.5 			c1.1,1,1.6,2.3,1.6,3.8V238.5z"/> 		<path class="st5" d="M978.5,220c4.3,3.3,6.4,7.8,6.4,13.7c-0.1,2.1,0.1,3.9,0.4,5.6c1.6,0.5,2.7,1.6,3.3,3.3 			c0.6,1.7,0.3,3.2-0.8,4.7c-1.1,1.5-2.6,2.2-4.6,2.2h-0.1c-2.8,0-5.1-1.4-6.7-4.3c-1.3-2.8-2-6.6-2-11.3c-0.1-2.9-1.5-5.2-4-6.8 			c-1.6-1.1-3.4-1.8-5.3-2.3H954v20.5c0,1.5-0.5,2.7-1.6,3.7c-1,1-2.3,1.5-3.7,1.5c-1.5,0-2.7-0.5-3.7-1.5c-1-1-1.5-2.2-1.5-3.7 			v-55.8c0-1.4,0.5-2.7,1.5-3.7c1-1,2.2-1.5,3.7-1.5h16.9c5.6,0,10.4,2,14.3,6c3.9,4,5.9,8.9,5.9,14.8 			C985.9,210.9,983.4,215.9,978.5,220z M965.6,214.1c2.7,0,5-0.9,6.9-2.8c1.9-1.9,2.8-4.2,2.8-6.9c0-2.7-0.9-5-2.8-6.9 			c-1.9-1.9-4.2-2.9-6.9-2.9H954v19.5H965.6z"/> 		<path class="st5" d="M1069,223c0,7.5-2.7,13.9-8,19.3c-5.3,5.4-11.8,8-19.3,8s-14-2.7-19.3-8c-5.3-5.3-8-11.8-8-19.3v-33.7 			c0-1.4,0.5-2.7,1.5-3.7c1-1,2.2-1.5,3.7-1.5c1.4,0,2.7,0.5,3.7,1.5c1,1,1.6,2.2,1.6,3.7V223c0,4.6,1.6,8.6,4.9,11.9 			c3.3,3.3,7.2,5,11.9,5c4.7,0,8.6-1.6,11.9-4.9c3.3-3.3,4.9-7.2,4.9-11.9v-33.7c0-1.4,0.5-2.7,1.6-3.7c1-1,2.3-1.5,3.7-1.5 			c1.4,0,2.7,0.5,3.7,1.5c1,1,1.5,2.2,1.5,3.7V223z"/> 		<path class="st5" d="M1138,190.1c4,4,6,8.7,6,14.3c0,5.6-2,10.3-6,14.3c-4,3.9-8.8,5.9-14.4,5.9H1112v20.5c0,1.5-0.5,2.7-1.6,3.7 			c-1,1-2.3,1.5-3.7,1.5s-2.7-0.5-3.7-1.5c-1-1-1.5-2.2-1.5-3.7v-55.8c0-1.4,0.5-2.7,1.5-3.7c1-1,2.2-1.5,3.7-1.5h16.9 			C1129.2,184.2,1134,186.2,1138,190.1z M1112,194.7v19.5h11.6c2.7,0,5-0.9,6.9-2.8c1.9-1.9,2.9-4.2,2.9-6.8c-0.1-2.8-1-5.1-2.9-7 			c-1.9-1.9-4.2-2.8-6.9-2.8H1112z"/> 		<path class="st5" d="M1173.4,240.3c-6.3-6.7-9.4-14.7-9.4-24c0-9.3,3.1-17.3,9.4-24c6.3-6.7,13.9-10,22.9-10 			c9,0,16.7,3.4,22.9,10.2c6.3,6.8,9.4,14.8,9.4,24c0,9.2-3.2,17.1-9.6,23.8c-2.8,3.2-6.2,5.6-10.2,7.4c-4,1.8-8.1,2.7-12.4,2.7 			C1187.4,250.4,1179.7,247,1173.4,240.3z M1174.8,216.3c0,6.4,2.1,11.8,6.3,16.4c4.2,4.6,9.3,6.9,15.3,6.9c6,0,11-2.3,15.2-7 			s6.3-10.1,6.3-16.3s-2.1-11.7-6.2-16.3s-9.3-7-15.3-7c-6,0-11.1,2.3-15.3,6.9C1176.9,204.5,1174.8,210,1174.8,216.3z"/> 		<path class="st5" d="M1296.3,245.2v-55.8c0-1.4,0.5-2.7,1.5-3.7c1-1,2.2-1.5,3.7-1.5h11.2c9.1,0,16.9,3.2,23.4,9.7 			c6.4,6.5,9.6,14.3,9.6,23.4c0,9.1-3.2,16.9-9.6,23.4c-6.4,6.5-14.2,9.7-23.4,9.7h-11.2c-1.5,0-2.7-0.5-3.7-1.5 			C1296.8,247.8,1296.3,246.6,1296.3,245.2z M1306.8,194.7v45.2h5.9c6.2-0.1,11.6-2.3,15.9-6.7c4.4-4.4,6.6-9.7,6.6-15.9 			c0-6.2-2.2-11.6-6.6-16c-4.4-4.4-9.7-6.6-15.9-6.6H1306.8z"/> 		<path class="st5" d="M1379.8,250.4c-1.5,0-2.7-0.5-3.7-1.5c-1-1-1.5-2.2-1.5-3.7v-55.8c0-1.4,0.5-2.7,1.5-3.7c1-1,2.2-1.5,3.7-1.5 			h30.9c1.4,0,2.6,0.5,3.6,1.5c1,1,1.6,2.2,1.6,3.7c0,1.5-0.5,2.7-1.6,3.7c-1,1-2.3,1.6-3.6,1.6h-25.6V212h22c1.4,0,2.6,0.5,3.6,1.6 			s1.6,2.3,1.6,3.7c0,1.4-0.5,2.6-1.5,3.7c-1,1-2.2,1.6-3.7,1.6h-22v17.4h25.6c1.4,0,2.6,0.5,3.6,1.6c1,1,1.6,2.3,1.6,3.7 			s-0.5,2.6-1.6,3.7c-1,1-2.3,1.6-3.6,1.6h-30.6H1379.8L1379.8,250.4z"/> 		<path class="st5" d="M1480.3,189.4c0-1.4,0.5-2.7,1.5-3.7c1-1,2.2-1.5,3.7-1.5c1.4,0,2.7,0.5,3.7,1.5c1,1,1.6,2.2,1.6,3.7v55.8 			c0,1.5-0.5,2.7-1.6,3.7c-1,1-2.3,1.5-3.7,1.5c-1.5,0-2.7-0.5-3.7-1.5c-1-1-1.5-2.2-1.5-3.7V189.4z"/> 		<path class="st5" d="M1529.2,205.9v39.2c0,1.4-0.5,2.6-1.5,3.6c-1,1-2.2,1.6-3.6,1.6c-1.4,0-2.6-0.5-3.6-1.5c-1-1-1.5-2.2-1.5-3.7 			v-55c-0.1-1.8,0.5-3.2,1.8-4.2c1.4-0.9,2.7-1.3,4.1-1.1c1.4,0.2,2.5,0.9,3.3,2l30.5,42.3v-39c0-1.4,0.5-2.6,1.5-3.6 			c1-1,2.2-1.5,3.6-1.5s2.6,0.5,3.6,1.5c1,1,1.6,2.2,1.6,3.6v54.9c0,1.5-0.5,2.7-1.6,3.7c-1,1-2.3,1.5-3.7,1.5 			c-1.5,0-2.7-0.6-3.8-1.9c-0.3-0.3-0.4-0.4-0.5-0.6L1529.2,205.9z"/> 		<path class="st5" d="M1624.5,250c-0.2,0-0.5-0.2-0.9-0.6h-0.1c-0.1-0.1-0.3-0.2-0.7-0.5c-0.1-0.1-0.2-0.3-0.3-0.4 			c-0.1-0.2-0.2-0.3-0.3-0.3c-0.1-0.1-0.1-0.2-0.2-0.4c-0.1-0.2-0.2-0.4-0.3-0.5l-23.2-55.2c-0.6-1.3-0.6-2.6,0-3.9 			c0.5-1.4,1.5-2.3,2.9-2.8c1.3-0.6,2.6-0.6,3.9,0c1.3,0.5,2.3,1.5,2.8,2.8l18.4,43.8l18.4-43.8c0.6-1.3,1.5-2.3,2.9-2.8 			c1.4-0.5,2.7-0.5,3.9,0c1.3,0.5,2.3,1.4,2.8,2.8c0.5,1.4,0.6,2.7,0,3.9l-23.4,55.2l-0.4,0.8c0,0.1,0,0.1-0.1,0.2l-1.2,1.2 			c-0.1,0.1-0.3,0.3-0.6,0.4c-0.3,0.1-0.7,0.3-1.3,0.5h-0.2c-0.3,0.1-0.6,0.1-1,0.1s-0.7,0-0.9-0.1h-0.2c-0.3-0.1-0.5-0.2-0.8-0.2 			L1624.5,250L1624.5,250z"/> 		<path class="st5" d="M1688.4,250.4c-1.5,0-2.7-0.5-3.7-1.5c-1-1-1.5-2.2-1.5-3.7v-55.8c0-1.4,0.5-2.7,1.5-3.7c1-1,2.2-1.5,3.7-1.5 			h30.9c1.4,0,2.6,0.5,3.6,1.5c1,1,1.6,2.2,1.6,3.7c0,1.5-0.5,2.7-1.6,3.7c-1,1-2.3,1.6-3.6,1.6h-25.6V212h22c1.4,0,2.6,0.5,3.6,1.6 			s1.6,2.3,1.6,3.7c0,1.4-0.5,2.6-1.5,3.7c-1,1-2.2,1.6-3.7,1.6h-22v17.4h25.6c1.4,0,2.6,0.5,3.6,1.6c1,1,1.6,2.3,1.6,3.7 			s-0.5,2.6-1.6,3.7c-1,1-2.3,1.6-3.6,1.6h-30.6H1688.4L1688.4,250.4z"/> 		<path class="st5" d="M1788.4,230.2c0-4.8-5.5-8.2-16.6-10.3h-0.2c-4.9-0.9-9.2-2.3-12.8-4c-3.6-1.7-6.2-3.9-7.9-6.6 			c-1.7-2.7-2.5-5.4-2.5-8.3c0-5.5,2.4-10,7.2-13.5c4.8-3.5,10.4-5.3,16.7-5.3c2.8,0,5.6,0.5,8.5,1.4c2.9,0.9,5.1,1.8,6.5,2.6 			c1.4,0.8,3.3,2,5.6,3.5c1.1,0.8,1.7,1.8,2,3.1c0.3,1.3,0.1,2.5-0.7,3.6c-0.7,1.1-1.7,1.8-3.1,2.1c-1.3,0.3-2.6,0-3.7-0.7 			c-3-2-5.6-3.5-7.9-4.5c-2.3-1-4.7-1.5-7.3-1.5c-4.2,0-7.6,1-10.2,2.9c-2.6,2-4,4-4,6.2c0,1.1,0.3,2,0.8,2.7 			c1.8,2.9,6.5,5.1,14.3,6.5h0.2c5.3,1.1,9.6,2.4,13,4c7.8,3.8,11.7,9.1,11.7,15.9c0,5.9-2.6,10.7-7.8,14.4 			c-5.2,3.8-11.1,5.6-17.9,5.6c-8.3-0.1-16.3-3.2-24.2-9.5c-1-0.8-1.6-1.9-1.7-3.3c-0.2-1.4,0.2-2.6,1-3.6c0.8-1,1.9-1.6,3.3-1.7 			c1.4-0.2,2.6,0.2,3.6,1.1c6.1,4.9,12.1,7.3,18.1,7.3c4.7,0,8.6-1.1,11.5-3.3C1786.9,235.1,1788.4,232.7,1788.4,230.2z"/> 		<path class="st5" d="M1867.1,185.7c1,1,1.5,2.2,1.5,3.7c0,1.5-0.5,2.7-1.6,3.7c-1,1-2.3,1.6-3.6,1.6h-15v50.5 			c0,1.5-0.5,2.7-1.5,3.7c-1,1-2.2,1.5-3.7,1.5c-1.5,0-2.7-0.5-3.7-1.5c-1-1-1.5-2.2-1.5-3.7v-50.5h-14.9c-1.5,0-2.7-0.5-3.7-1.6 			c-1-1-1.5-2.3-1.5-3.7c0-1.4,0.5-2.7,1.5-3.7c1-1,2.2-1.5,3.7-1.5h40.4C1864.9,184.2,1866.1,184.7,1867.1,185.7z"/> 		<path class="st5" d="M1895.2,189.4c0-1.4,0.5-2.7,1.5-3.7c1-1,2.2-1.5,3.7-1.5c1.4,0,2.7,0.5,3.7,1.5c1,1,1.6,2.2,1.6,3.7v55.8 			c0,1.5-0.5,2.7-1.6,3.7c-1,1-2.3,1.5-3.7,1.5c-1.5,0-2.7-0.5-3.7-1.5c-1-1-1.5-2.2-1.5-3.7V189.4z"/> 		<path class="st5" d="M1989.4,238.5c0,0.8-0.2,1.5-0.5,2.1v0.1c-0.3,0.9-0.9,1.6-1.8,2.3c-6.3,4.9-13.5,7.4-21.5,7.4 			c-9.6,0-17.9-3.3-24.7-9.9c-6.8-6.6-10.2-14.6-10.2-24.1c0-9.5,3.4-17.5,10.2-24.2c6.8-6.6,15-10,24.7-10c8.1,0,15.3,2.5,21.6,7.4 			c1.2,0.9,1.9,2.1,2.1,3.6c0.2,1.5-0.2,2.9-1,4c-0.9,1.2-2.1,1.8-3.6,2c-1.5,0.2-2.9-0.2-4.1-1.1c-4.4-3.4-9.7-5.1-15.7-5.1 			c-6.1,0-11.5,2.3-16.2,6.8c-4.7,4.5-7.1,10-7.1,16.5c0,6.4,2.4,11.9,7.1,16.5c4.8,4.5,10.4,6.8,17,6.8c4.5,0,8.8-1.2,13-3.6v-13 			h-13.5c-1.5,0-2.7-0.5-3.8-1.6c-1.1-1.1-1.6-2.3-1.6-3.8c0-1.5,0.5-2.7,1.6-3.7c1-1,2.3-1.5,3.8-1.5h18.8c1.5,0,2.8,0.5,3.9,1.5 			c1.1,1,1.6,2.3,1.6,3.8V238.5z"/> 		<path class="st5" d="M2059.4,247.1l-4.6-12.3h-23l-4.6,12.3c-0.9,2.2-2.4,3.3-4.6,3.3s-3.7-0.8-4.7-2.3c-0.9-1.5-1.1-3.1-0.6-4.8 			l20.9-55.7c0.4-1,1.1-1.8,2-2.5c0.9-0.6,1.9-0.9,3-0.9c2.4-0.1,4.1,1,5,3.3l20.9,55.7c0.6,1.6,0.4,3.2-0.6,4.8 			c-0.9,1.5-2.5,2.3-4.7,2.3S2060.2,249.3,2059.4,247.1z M2035.5,224.4h15.3l-7.7-20.3L2035.5,224.4z"/> 		<path class="st5" d="M2107.1,199.9c-4.6,4.7-6.9,10.3-6.9,16.6c0,6.4,2.3,11.8,7,16.3c4.7,4.5,10.1,6.8,16.3,6.8 			c6.2,0,11.4-1.7,15.8-5.2c1.1-0.8,2.4-1.1,3.9-0.9c1.5,0.2,2.7,0.9,3.7,2c0.9,1.2,1.2,2.5,1,4c-0.2,1.5-0.9,2.7-2,3.5 			c-6.3,4.9-13.6,7.4-21.8,7.4c-9.5,0-17.6-3.3-24.4-10c-6.8-6.7-10.2-14.7-10.3-24.1c0.1-9.3,3.5-17.3,10.3-24 			c6.8-6.6,14.9-10,24.4-10.1c8.3,0,15.5,2.5,21.8,7.4c1.1,0.9,1.8,2.1,2,3.6c0.2,1.5-0.2,2.8-1.1,4c-0.9,1.2-2.1,1.9-3.6,2.1 			c-1.5,0.2-2.8-0.2-3.9-1c-4.2-3.5-9.4-5.2-15.6-5.2C2117.5,193.1,2112,195.3,2107.1,199.9z"/> 		<path class="st5" d="M2176.2,189.4c0-1.4,0.5-2.7,1.5-3.7c1-1,2.2-1.5,3.7-1.5c1.4,0,2.7,0.5,3.7,1.5c1,1,1.6,2.2,1.6,3.7v55.8 			c0,1.5-0.5,2.7-1.6,3.7c-1,1-2.3,1.5-3.7,1.5c-1.5,0-2.7-0.5-3.7-1.5c-1-1-1.5-2.2-1.5-3.7V189.4z"/> 		<path class="st5" d="M2221.2,240.3c-6.3-6.7-9.4-14.7-9.4-24c0-9.3,3.1-17.3,9.4-24c6.3-6.7,13.9-10,22.9-10 			c9,0,16.7,3.4,22.9,10.2c6.3,6.8,9.4,14.8,9.4,24c0,9.2-3.2,17.1-9.6,23.8c-2.8,3.2-6.2,5.6-10.2,7.4c-4,1.8-8.1,2.7-12.4,2.7 			C2235.2,250.4,2227.5,247,2221.2,240.3z M2222.6,216.3c0,6.4,2.1,11.8,6.3,16.4c4.2,4.6,9.3,6.9,15.3,6.9c6,0,11-2.3,15.2-7 			s6.3-10.1,6.3-16.3s-2.1-11.7-6.2-16.3s-9.3-7-15.3-7c-6,0-11.1,2.3-15.3,6.9C2224.7,204.5,2222.6,210,2222.6,216.3z M2256,173.1 			c-1.8,1.7-3.9,2.6-6.1,2.6c-2.3,0-3.4-0.7-3.4-2c0-0.6,0.3-1.3,0.8-2.1l5.4-8.3c1.1-1.8,2.6-2.7,4.3-2.7c1.7,0,3.3,0.4,4.8,1.2 			c1.5,0.8,2.2,1.6,2.2,2.6c0,0.9-0.5,1.8-1.6,2.8L2256,173.1z"/> 		<path class="st5" d="M2315.8,205.9v39.2c0,1.4-0.5,2.6-1.5,3.6c-1,1-2.2,1.6-3.6,1.6c-1.4,0-2.6-0.5-3.6-1.5c-1-1-1.5-2.2-1.5-3.7 			v-55c-0.1-1.8,0.5-3.2,1.8-4.2c1.4-0.9,2.7-1.3,4.1-1.1c1.4,0.2,2.5,0.9,3.3,2l30.5,42.3v-39c0-1.4,0.5-2.6,1.5-3.6 			c1-1,2.2-1.5,3.6-1.5s2.6,0.5,3.6,1.5c1,1,1.6,2.2,1.6,3.6v54.9c0,1.5-0.5,2.7-1.6,3.7c-1,1-2.3,1.5-3.7,1.5 			c-1.5,0-2.7-0.6-3.8-1.9c-0.3-0.3-0.4-0.4-0.5-0.6L2315.8,205.9z"/> 	</g> </g> </svg>