<?xml version="1.0" encoding="UTF-8" standalone="no"?>
<!-- Generator: Adobe Illustrator 21.0.2, SVG Export Plug-In . SVG Version: 6.00 Build 0)  -->

<svg
   xmlns:dc="http://purl.org/dc/elements/1.1/"
   xmlns:cc="http://creativecommons.org/ns#"
   xmlns:rdf="http://www.w3.org/1999/02/22-rdf-syntax-ns#"
   xmlns:svg="http://www.w3.org/2000/svg"
   xmlns="http://www.w3.org/2000/svg"
   xmlns:sodipodi="http://sodipodi.sourceforge.net/DTD/sodipodi-0.dtd"
   xmlns:inkscape="http://www.inkscape.org/namespaces/inkscape"
   version="1.1"
   id="Layer_1"
   x="0px"
   y="0px"
   viewBox="0 0 546.70001 363.70001"
   xml:space="preserve"
   sodipodi:docname="UTP-logo.svg"
   width="546.70001"
   height="363.70001"
   inkscape:version="0.92.2 (unknown)"><metadata
     id="metadata103"><rdf:RDF><cc:Work
         rdf:about=""><dc:format>image/svg+xml</dc:format><dc:type
           rdf:resource="http://purl.org/dc/dcmitype/StillImage" /><dc:title></dc:title></cc:Work></rdf:RDF></metadata><defs
     id="defs101" /><sodipodi:namedview
     pagecolor="#ffffff"
     bordercolor="#666666"
     borderopacity="1"
     objecttolerance="10"
     gridtolerance="10"
     guidetolerance="10"
     inkscape:pageopacity="0"
     inkscape:pageshadow="2"
     inkscape:window-width="1366"
     inkscape:window-height="695"
     id="namedview99"
     showgrid="false"
     fit-margin-top="0"
     fit-margin-left="0"
     fit-margin-right="0"
     fit-margin-bottom="0"
     inkscape:zoom="0.236"
     inkscape:cx="273.4"
     inkscape:cy="181.9"
     inkscape:window-x="1280"
     inkscape:window-y="27"
     inkscape:window-maximized="1"
     inkscape:current-layer="Layer_1" /><style
     type="text/css"
     id="style2">
	.st0{fill:#fff;}
	.st1{fill-rule:evenodd;clip-rule:evenodd;fill:#89868B;}
	.st2{fill-rule:evenodd;clip-rule:evenodd;fill:#010101;}
</style><g
     id="g96"
     transform="translate(-226.6,-318.2)"><g
       id="g24"><polygon
         class="st0"
         points="227.5,370.1 279.4,318.2 279.4,551.7 227.5,499.8 "
         id="polygon4"
         style="fill:#ffffff" /><rect
         x="357.29999"
         y="375.29999"
         class="st0"
         width="51.900002"
         height="119.4"
         id="rect6"
         style="fill:#ffffff" /><polygon
         class="st0"
         points="471.4,375.3 523.3,375.3 523.3,499.8 471.4,551.7 "
         id="polygon8"
         style="fill:#ffffff" /><polygon
         class="st0"
         points="590.8,473.9 642.8,422 642.8,499.8 590.8,551.7 "
         id="polygon10"
         style="fill:#ffffff" /><polygon
         class="st0"
         points="720.6,375.3 772.5,375.3 772.5,422 720.6,473.9 "
         id="polygon12"
         style="fill:#ffffff" /><polygon
         class="st0"
         points="284.6,499.8 409.2,499.8 357.3,551.7 284.6,551.7 "
         id="polygon14"
         style="fill:#ffffff" /><polygon
         class="st0"
         points="409.2,318.2 513,318.2 461.1,370.1 357.3,370.1 "
         id="polygon16"
         style="fill:#ffffff" /><polygon
         class="st0"
         points="523.3,318.2 627.2,318.2 575.3,370.1 471.4,370.1 "
         id="polygon18"
         style="fill:#ffffff" /><polygon
         class="st0"
         points="637.5,318.2 720.6,318.2 772.5,370.1 585.6,370.1 "
         id="polygon20"
         style="fill:#ffffff" /><rect
         x="647.90002"
         y="422"
         class="st0"
         width="67.5"
         height="51.900002"
         id="rect22"
         style="fill:#ffffff" /></g><g
       id="g94"><g
         id="g48"><path
           class="st0"
           d="m 234.2,577.7 v 31.2 c 0,7.7 2.4,10.1 5.4,10.1 3.2,0 5.4,-2.4 5.4,-10.1 v -31.2 h 7.5 v 29.9 c 0,12.2 -4.8,18 -13,18 -8.6,0 -12.9,-5.8 -12.9,-17.6 v -30.3 z"
           id="path26"
           inkscape:connector-curvature="0"
           style="fill:#ffffff" /><path
           class="st0"
           d="m 260,600.4 c 0,-3.9 -0.2,-6.6 -0.3,-9.6 h 6.5 l 0.4,4 h 0.1 c 1.6,-2.7 4.5,-4.6 8.1,-4.6 5.8,0 8.8,4.4 8.8,12.4 V 625 H 276 v -21.7 c 0,-3.4 -0.7,-6.7 -4,-6.7 -1.8,0 -3.5,1.4 -4.2,4.2 -0.2,0.7 -0.4,1.8 -0.4,3.1 V 625 H 260 Z"
           id="path28"
           inkscape:connector-curvature="0"
           style="fill:#ffffff" /><path
           class="st0"
           d="m 298.2,581.9 c 0.1,2.5 -1.7,4.3 -4.1,4.3 -2.2,0 -3.9,-1.7 -3.9,-4.3 -0.1,-2.7 1.8,-4.4 4,-4.4 2.3,0 4,1.7 4,4.4 z m -7.8,43.1 v -34.2 h 7.5 V 625 Z"
           id="path30"
           inkscape:connector-curvature="0"
           style="fill:#ffffff" /><path
           class="st0"
           d="m 309.9,590.8 3.4,17.1 c 0.5,2.7 1,5.8 1.5,9 h 0.1 c 0.4,-3.2 0.9,-6 1.4,-9 l 3.3,-17.1 h 7.5 L 318,625 h -6.8 L 302,590.8 Z"
           id="path32"
           inkscape:connector-curvature="0"
           style="fill:#ffffff" /><path
           class="st0"
           d="m 336.1,609.9 c 0.1,7.7 3.7,9.8 7.7,9.8 2.5,0 4.6,-0.6 6.1,-1.3 l 1,5.4 c -2.1,1 -5.4,1.6 -8.6,1.6 -8.8,0 -13.6,-6.4 -13.6,-17 0,-11.3 5.5,-18.2 12.8,-18.2 7.2,0 10.8,6.5 10.8,15.7 0,2 -0.1,3.1 -0.2,4 z m 9.3,-5.3 c 0.1,-5.5 -1.8,-8.7 -4.4,-8.7 -3.2,0 -4.7,4.7 -4.8,8.7 z"
           id="path34"
           inkscape:connector-curvature="0"
           style="fill:#ffffff" /><path
           class="st0"
           d="m 357.8,600.4 c 0,-3.2 -0.2,-6.7 -0.3,-9.6 h 6.5 l 0.4,5.2 h 0.2 c 1.3,-3.5 4.1,-5.7 7,-5.7 0.7,0 1.1,0.1 1.5,0.1 v 7.5 c -0.4,-0.1 -0.9,-0.1 -1.5,-0.1 -2.6,0 -5.3,2.2 -6,5.9 -0.2,0.8 -0.3,2 -0.3,3.3 v 18 h -7.5 z"
           id="path36"
           inkscape:connector-curvature="0"
           style="fill:#ffffff" /><path
           class="st0"
           d="m 376.4,617.9 c 1.3,0.8 3.7,1.8 5.9,1.8 2.7,0 4.3,-1.5 4.3,-3.9 0,-2.1 -1,-3.5 -4.1,-5.6 -5.1,-3 -7,-6.3 -7,-9.8 0,-5.9 4.4,-10.3 10.5,-10.3 2.8,0 4.9,0.8 6.6,1.7 l -1.6,5.6 c -1.3,-0.8 -2.9,-1.5 -4.7,-1.5 -2.6,0 -3.9,1.7 -3.9,3.6 0,1.8 0.8,2.9 4.1,5 4.6,2.7 7,6.1 7,10.3 0,7 -4.9,10.5 -11.3,10.5 -2.7,0 -5.8,-0.8 -7.3,-2 z"
           id="path38"
           inkscape:connector-curvature="0"
           style="fill:#ffffff" /><path
           class="st0"
           d="m 406.3,581.9 c 0.1,2.5 -1.7,4.3 -4.1,4.3 -2.2,0 -3.9,-1.7 -3.9,-4.3 -0.1,-2.7 1.8,-4.4 4,-4.4 2.3,0 4,1.7 4,4.4 z m -7.7,43.1 v -34.2 h 7.5 V 625 Z"
           id="path40"
           inkscape:connector-curvature="0"
           style="fill:#ffffff" /><path
           class="st0"
           d="m 436,576.4 v 39.3 c 0,2.8 0.1,6.7 0.3,9.3 h -6.5 l -0.4,-4.1 h -0.2 c -1.2,2.4 -3.8,4.6 -7.1,4.6 -6.7,0 -10.4,-7.2 -10.4,-17.6 0,-12 5.2,-17.8 10.8,-17.8 2.8,0 4.8,1.3 6,3.7 h 0.1 v -17.6 h 7.4 z m -7.5,27.5 c 0,-0.6 0,-1.4 -0.1,-2.1 -0.3,-2.7 -1.8,-5.1 -4.1,-5.1 -3.8,0 -5.1,5.3 -5.1,11.5 0,6.9 1.8,11.3 5,11.3 1.4,0 3.2,-0.8 4.1,-4.2 0.2,-0.6 0.3,-1.4 0.3,-2.2 v -9.2 z"
           id="path42"
           inkscape:connector-curvature="0"
           style="fill:#ffffff" /><path
           class="st0"
           d="m 463.7,617.2 c 0,2.7 0.1,5.6 0.4,7.8 h -6.7 l -0.4,-3.5 h -0.1 c -1.8,2.7 -4.3,4.1 -7.2,4.1 -4.9,0 -8.6,-4.1 -8.6,-10.1 0,-8.8 7.5,-12.5 15.2,-12.6 V 602 c 0,-3.5 -1.4,-6 -5.1,-6 -2.5,0 -4.5,0.7 -6.4,1.9 l -1.4,-5.1 c 1.7,-1.1 5.3,-2.5 9.4,-2.5 8.9,0 11.1,6 11.1,13.3 v 13.6 z m -7.4,-9.3 c -3,0.1 -8.2,0.8 -8.2,6.8 0,3.9 2,5.3 3.7,5.3 1.8,0 3.6,-1.3 4.3,-3.9 0.1,-0.5 0.2,-1.1 0.2,-1.8 z"
           id="path44"
           inkscape:connector-curvature="0"
           style="fill:#ffffff" /><path
           class="st0"
           d="m 493.6,576.4 v 39.3 c 0,2.8 0.1,6.7 0.3,9.3 h -6.5 l -0.4,-4 h -0.2 c -1.2,2.4 -3.8,4.6 -7.1,4.6 -6.7,0 -10.4,-7.2 -10.4,-17.6 0,-12 5.2,-17.8 10.8,-17.8 2.8,0 4.8,1.3 6,3.7 h 0.1 v -17.6 h 7.4 z m -7.4,27.5 c 0,-0.6 0,-1.4 -0.1,-2.1 -0.3,-2.7 -1.8,-5.1 -4.1,-5.1 -3.8,0 -5.1,5.3 -5.1,11.5 0,6.9 1.8,11.3 5,11.3 1.4,0 3.2,-0.8 4.1,-4.2 0.2,-0.6 0.3,-1.4 0.3,-2.2 v -9.2 z"
           id="path46"
           inkscape:connector-curvature="0"
           style="fill:#ffffff" /></g><g
         id="g72"><path
           class="st0"
           d="m 516,584.6 h -8.5 v -6.9 h 24.6 v 6.9 h -8.6 V 625 H 516 Z"
           id="path50"
           inkscape:connector-curvature="0"
           style="fill:#ffffff" /><path
           class="st0"
           d="m 538.7,609.9 c 0.1,7.7 3.7,9.8 7.7,9.8 2.5,0 4.6,-0.6 6.1,-1.3 l 1.1,5.4 c -2.1,1 -5.4,1.6 -8.6,1.6 -8.8,0 -13.6,-6.4 -13.6,-17 0,-11.3 5.5,-18.2 12.8,-18.2 7.2,0 10.8,6.5 10.8,15.7 0,2 -0.1,3.1 -0.2,4 z m 9.3,-5.3 c 0.1,-5.5 -1.8,-8.7 -4.4,-8.7 -3.2,0 -4.7,4.7 -4.8,8.7 z"
           id="path52"
           inkscape:connector-curvature="0"
           style="fill:#ffffff" /><path
           class="st0"
           d="m 578.4,624.3 c -1.1,0.6 -3.2,1.1 -5.8,1.1 -8.1,0 -13.6,-6 -13.6,-17.3 0,-10.2 5.7,-17.8 14.8,-17.8 2,0 4,0.5 4.9,1 l -1.1,6 c -0.8,-0.3 -2,-0.8 -3.6,-0.8 -4.9,0 -7.4,5.3 -7.4,11.5 0,7 2.8,11.2 7.4,11.2 1.4,0 2.6,-0.2 3.6,-0.8 z"
           id="path54"
           inkscape:connector-curvature="0"
           style="fill:#ffffff" /><path
           class="st0"
           d="m 582.4,600.4 c 0,-3.9 -0.1,-6.6 -0.3,-9.6 h 6.5 l 0.4,4 h 0.1 c 1.6,-2.7 4.5,-4.6 8.1,-4.6 5.8,0 8.8,4.4 8.8,12.4 V 625 h -7.5 v -21.7 c 0,-3.4 -0.7,-6.7 -4,-6.7 -1.8,0 -3.5,1.4 -4.2,4.2 -0.2,0.7 -0.4,1.8 -0.4,3.1 V 625 h -7.5 z"
           id="path56"
           inkscape:connector-curvature="0"
           style="fill:#ffffff" /><path
           class="st0"
           d="m 636,607.8 c 0,13.9 -7.1,17.8 -12.3,17.8 -7.2,0 -12.2,-6 -12.2,-17.6 0,-12.4 6.1,-17.8 12.5,-17.8 7.2,0.1 12,6.4 12,17.6 z m -17,0.1 c 0,5.8 1,12 5,12 3.7,0 4.6,-6.8 4.6,-12 0,-5 -0.8,-11.8 -4.7,-11.8 -4.1,0 -4.9,6.8 -4.9,11.8 z"
           id="path58"
           inkscape:connector-curvature="0"
           style="fill:#ffffff" /><path
           class="st0"
           d="m 641.7,576.4 h 7.5 V 625 h -7.5 z"
           id="path60"
           inkscape:connector-curvature="0"
           style="fill:#ffffff" /><path
           class="st0"
           d="m 679.6,607.8 c 0,13.9 -7.1,17.8 -12.3,17.8 -7.2,0 -12.2,-6 -12.2,-17.6 0,-12.4 6.1,-17.8 12.5,-17.8 7.1,0.1 12,6.4 12,17.6 z m -17,0.1 c 0,5.8 1,12 5,12 3.7,0 4.6,-6.8 4.6,-12 0,-5 -0.9,-11.8 -4.7,-11.8 -4.1,0 -4.9,6.8 -4.9,11.8 z m 14,-31.1 -7.2,9.7 h -4.8 l 5.1,-9.7 z"
           id="path62"
           inkscape:connector-curvature="0"
           style="fill:#ffffff" /><path
           class="st0"
           d="m 708.2,621 c 0,8.1 -1.3,11.8 -3.8,14.4 -2.3,2.4 -5.8,3.7 -10.2,3.7 -3.1,0 -6,-0.6 -8.1,-1.6 l 1.5,-5.8 c 1.6,0.8 3.7,1.5 6.5,1.5 4.5,0 6.7,-2.9 6.7,-9.3 v -2.7 h -0.1 c -1.2,2.4 -3.7,3.7 -6.3,3.7 -7,0 -10.4,-7.7 -10.4,-16.7 0,-12 5.4,-17.9 11.2,-17.9 3.1,0 5.1,1.9 6.3,4.2 h 0.1 l 0.4,-3.7 h 6.6 c -0.2,2.8 -0.4,6.2 -0.4,10.7 z m -7.4,-18 c 0,-0.8 -0.1,-1.8 -0.4,-2.5 -0.5,-1.9 -1.6,-3.9 -3.8,-3.9 -3.6,0 -5.3,4.8 -5.3,11.3 0,7.4 2.3,11 5.1,11 1.4,0 3,-0.7 3.9,-3.6 0.4,-0.9 0.4,-1.9 0.4,-2.8 V 603 Z"
           id="path64"
           inkscape:connector-curvature="0"
           style="fill:#ffffff" /><path
           class="st0"
           d="m 722.8,581.9 c 0.1,2.5 -1.7,4.3 -4.1,4.3 -2.2,0 -3.9,-1.7 -3.9,-4.3 -0.1,-2.7 1.8,-4.4 4,-4.4 2.3,0 4,1.7 4,4.4 z m -7.7,43.1 v -34.2 h 7.5 V 625 Z"
           id="path66"
           inkscape:connector-curvature="0"
           style="fill:#ffffff" /><path
           class="st0"
           d="m 747.4,624.3 c -1.1,0.6 -3.2,1.1 -5.8,1.1 -8.2,0 -13.6,-6 -13.6,-17.3 0,-10.2 5.7,-17.8 14.7,-17.8 2,0 4,0.5 4.9,1 l -1.1,6 c -0.8,-0.3 -2,-0.8 -3.7,-0.8 -4.8,0 -7.4,5.3 -7.4,11.5 0,7 2.8,11.2 7.4,11.2 1.4,0 2.6,-0.2 3.7,-0.8 z"
           id="path68"
           inkscape:connector-curvature="0"
           style="fill:#ffffff" /><path
           class="st0"
           d="m 772.9,617.2 c 0,2.7 0.1,5.6 0.4,7.8 h -6.7 l -0.4,-3.5 H 766 c -1.8,2.7 -4.3,4.1 -7.2,4.1 -4.9,0 -8.7,-4.1 -8.7,-10.1 0,-8.8 7.4,-12.5 15.2,-12.6 V 602 c 0,-3.5 -1.4,-6 -5.1,-6 -2.5,0 -4.5,0.7 -6.4,1.9 l -1.4,-5.1 c 1.7,-1.1 5.3,-2.5 9.4,-2.5 8.9,0 11.1,6 11.1,13.3 z m -7.4,-9.3 c -2.9,0.1 -8.2,0.8 -8.2,6.8 0,3.9 2,5.3 3.7,5.3 1.8,0 3.7,-1.3 4.3,-3.9 0.1,-0.5 0.2,-1.1 0.2,-1.8 z"
           id="path70"
           inkscape:connector-curvature="0"
           style="fill:#ffffff" /></g><g
         id="g92"><path
           class="st0"
           d="M 409.8,632.7 V 672 c 0,2.8 0.1,6.7 0.3,9.3 h -6.5 l -0.4,-4.1 H 403 c -1.2,2.5 -3.8,4.6 -7.1,4.6 -6.7,0 -10.4,-7.2 -10.4,-17.6 0,-12 5.2,-17.8 10.8,-17.8 2.8,0 4.8,1.3 6,3.7 h 0.1 v -17.6 h 7.4 z m -7.4,27.4 c 0,-0.6 0,-1.4 -0.1,-2.1 -0.3,-2.7 -1.8,-5.1 -4.1,-5.1 -3.8,0 -5.1,5.3 -5.1,11.5 0,6.9 1.8,11.3 5,11.3 1.4,0 3.2,-0.8 4.1,-4.2 0.2,-0.6 0.3,-1.4 0.3,-2.2 v -9.2 z"
           id="path74"
           inkscape:connector-curvature="0"
           style="fill:#ffffff" /><path
           class="st0"
           d="m 422.7,666.2 c 0.1,7.7 3.7,9.8 7.7,9.8 2.5,0 4.6,-0.6 6.1,-1.3 l 1.1,5.4 c -2.1,1 -5.4,1.6 -8.6,1.6 -8.8,0 -13.6,-6.4 -13.6,-17 0,-11.3 5.5,-18.2 12.8,-18.2 7.2,0 10.8,6.5 10.8,15.7 0,2 -0.1,3.1 -0.2,4 z m 9.3,-5.4 c 0.1,-5.5 -1.8,-8.7 -4.4,-8.7 -3.2,0 -4.7,4.7 -4.8,8.7 z"
           id="path76"
           inkscape:connector-curvature="0"
           style="fill:#ffffff" /><path
           class="st0"
           d="m 456.2,634.6 c 2.5,-0.6 5.5,-0.9 8.8,-0.9 5,0 9,0.9 11.8,3.6 2.5,2.4 3.8,6 3.8,10.1 0,4.8 -1.3,8.1 -3.5,10.6 -2.8,3.3 -7.4,4.8 -11.4,4.8 -0.8,0 -1.4,0 -2.1,0 v 18.4 h -7.4 z m 7.4,22.1 c 0.6,0.1 1.1,0.1 1.8,0.1 4.9,0 7.7,-3.4 7.7,-8.9 0,-4.4 -1.8,-8.2 -6.9,-8.2 -1,0 -2,0.1 -2.6,0.3 z"
           id="path78"
           inkscape:connector-curvature="0"
           style="fill:#ffffff" /><path
           class="st0"
           d="m 490.1,666.2 c 0.1,7.7 3.7,9.8 7.7,9.8 2.5,0 4.6,-0.6 6.1,-1.3 l 1.1,5.4 c -2.1,1 -5.4,1.6 -8.6,1.6 -8.8,0 -13.6,-6.4 -13.6,-17 0,-11.3 5.5,-18.2 12.8,-18.2 7.2,0 10.8,6.5 10.8,15.7 0,2 -0.1,3.1 -0.2,4 z m 9.3,-5.4 c 0.1,-5.5 -1.8,-8.7 -4.4,-8.7 -3.2,0 -4.7,4.7 -4.8,8.7 z"
           id="path80"
           inkscape:connector-curvature="0"
           style="fill:#ffffff" /><path
           class="st0"
           d="m 511.8,656.7 c 0,-3.2 -0.2,-6.7 -0.3,-9.6 h 6.5 l 0.4,5.2 h 0.2 c 1.3,-3.5 4.2,-5.8 7,-5.8 0.7,0 1.1,0.1 1.6,0.1 v 7.5 c -0.4,-0.1 -0.9,-0.1 -1.6,-0.1 -2.6,0 -5.3,2.2 -6,5.9 -0.2,0.8 -0.3,2 -0.3,3.3 v 18.1 h -7.5 z"
           id="path82"
           inkscape:connector-curvature="0"
           style="fill:#ffffff" /><path
           class="st0"
           d="m 536.3,666.2 c 0.1,7.7 3.7,9.8 7.7,9.8 2.5,0 4.6,-0.6 6.1,-1.3 l 1,5.4 c -2.1,1 -5.4,1.6 -8.6,1.6 -8.8,0 -13.5,-6.4 -13.5,-17 0,-11.3 5.5,-18.2 12.8,-18.2 7.2,0 10.8,6.5 10.8,15.7 0,2 -0.1,3.1 -0.2,4 z m 9.3,-5.4 c 0.1,-5.5 -1.7,-8.7 -4.4,-8.7 -3.2,0 -4.7,4.7 -4.9,8.7 z"
           id="path84"
           inkscape:connector-curvature="0"
           style="fill:#ffffff" /><path
           class="st0"
           d="m 565.7,638.1 c 0.1,2.5 -1.7,4.3 -4.1,4.3 -2.2,0 -3.9,-1.7 -3.9,-4.3 -0.1,-2.7 1.8,-4.4 4,-4.4 2.3,0.1 4,1.8 4,4.4 z m -7.7,43.2 v -34.2 h 7.5 v 34.2 z"
           id="path86"
           inkscape:connector-curvature="0"
           style="fill:#ffffff" /><path
           class="st0"
           d="m 572.4,656.7 c 0,-3.2 -0.2,-6.7 -0.3,-9.6 h 6.5 l 0.4,5.2 h 0.2 c 1.3,-3.5 4.2,-5.8 7,-5.8 0.7,0 1.1,0.1 1.5,0.1 v 7.5 c -0.4,-0.1 -0.9,-0.1 -1.5,-0.1 -2.6,0 -5.3,2.2 -6.1,5.9 -0.2,0.8 -0.3,2 -0.3,3.3 v 18.1 h -7.5 v -24.6 z"
           id="path88"
           inkscape:connector-curvature="0"
           style="fill:#ffffff" /><path
           class="st0"
           d="m 612.2,673.5 c 0,2.7 0.1,5.6 0.4,7.8 h -6.7 l -0.4,-3.5 h -0.2 c -1.7,2.7 -4.3,4.1 -7.2,4.1 -4.9,0 -8.6,-4.1 -8.6,-10.1 0,-8.8 7.4,-12.5 15.2,-12.6 v -0.9 c 0,-3.5 -1.4,-6 -5.1,-6 -2.5,0 -4.5,0.7 -6.4,1.9 l -1.4,-5.1 c 1.7,-1 5.3,-2.5 9.4,-2.5 8.9,0 11.1,6.1 11.1,13.4 v 13.5 z m -7.3,-9.4 c -3,0.1 -8.2,0.8 -8.2,6.8 0,3.9 2,5.3 3.7,5.3 1.8,0 3.7,-1.3 4.3,-3.9 0.1,-0.5 0.2,-1.1 0.2,-1.7 z"
           id="path90"
           inkscape:connector-curvature="0"
           style="fill:#ffffff" /></g></g></g></svg>